<mxfile host="app.diagrams.net" agent="Mozilla/5.0 (Macintosh; Intel Mac OS X 10_15_7) AppleWebKit/537.36 (KHTML, like Gecko) Chrome/128.0.0.0 Safari/537.36" version="24.7.7">
  <diagram name="Page-1" id="2a216829-ef6e-dabb-86c1-c78162f3ba2b">
    <mxGraphModel dx="1222" dy="686" grid="1" gridSize="10" guides="1" tooltips="1" connect="1" arrows="1" fold="1" page="1" pageScale="1" pageWidth="850" pageHeight="1100" background="none" math="0" shadow="0">
      <root>
        <mxCell id="0" />
        <mxCell id="1" parent="0" />
        <mxCell id="juU7Xa_zxB1kfExCuwxy-2" style="edgeStyle=orthogonalEdgeStyle;rounded=0;orthogonalLoop=1;jettySize=auto;html=1;" edge="1" parent="1" source="7a84cebc1def654-2">
          <mxGeometry relative="1" as="geometry">
            <mxPoint x="420" y="200" as="targetPoint" />
          </mxGeometry>
        </mxCell>
        <mxCell id="7a84cebc1def654-2" value="Planejamento e levantamento de requisitos&lt;div&gt;5 dias&lt;/div&gt;" style="shape=ext;rounded=1;html=1;whiteSpace=wrap;arcSize=0;" parent="1" vertex="1">
          <mxGeometry x="370" y="260" width="110" height="70" as="geometry" />
        </mxCell>
        <mxCell id="juU7Xa_zxB1kfExCuwxy-16" style="edgeStyle=orthogonalEdgeStyle;rounded=0;orthogonalLoop=1;jettySize=auto;html=1;entryX=0.5;entryY=1;entryDx=0;entryDy=0;" edge="1" parent="1" source="7a84cebc1def654-3" target="juU7Xa_zxB1kfExCuwxy-9">
          <mxGeometry relative="1" as="geometry" />
        </mxCell>
        <mxCell id="7a84cebc1def654-3" value="Análise de Viabilidade&lt;div&gt;3 dias&lt;/div&gt;" style="shape=ext;rounded=1;html=1;whiteSpace=wrap;arcSize=0;" parent="1" vertex="1">
          <mxGeometry x="360" y="390" width="120" height="80" as="geometry" />
        </mxCell>
        <mxCell id="7a84cebc1def654-36" style="edgeStyle=orthogonalEdgeStyle;rounded=0;html=1;jettySize=auto;orthogonalLoop=1;" parent="1" target="7a84cebc1def654-2" edge="1">
          <mxGeometry relative="1" as="geometry">
            <mxPoint x="309.999992331949" y="307.52631578947376" as="sourcePoint" />
          </mxGeometry>
        </mxCell>
        <mxCell id="7a84cebc1def654-39" style="edgeStyle=orthogonalEdgeStyle;rounded=0;html=1;jettySize=auto;orthogonalLoop=1;exitX=0.5;exitY=1;exitDx=0;exitDy=0;" parent="1" source="7a84cebc1def654-2" target="7a84cebc1def654-3" edge="1">
          <mxGeometry relative="1" as="geometry" />
        </mxCell>
        <mxCell id="juU7Xa_zxB1kfExCuwxy-4" style="edgeStyle=orthogonalEdgeStyle;rounded=0;orthogonalLoop=1;jettySize=auto;html=1;entryX=0.5;entryY=0;entryDx=0;entryDy=0;" edge="1" parent="1" source="juU7Xa_zxB1kfExCuwxy-3" target="juU7Xa_zxB1kfExCuwxy-9">
          <mxGeometry relative="1" as="geometry">
            <mxPoint x="600" y="240" as="targetPoint" />
          </mxGeometry>
        </mxCell>
        <mxCell id="juU7Xa_zxB1kfExCuwxy-3" value="Arquitetura do sistema&lt;div&gt;7 dias&lt;/div&gt;" style="shape=ext;rounded=1;html=1;whiteSpace=wrap;arcSize=0;" vertex="1" parent="1">
          <mxGeometry x="370" y="120" width="120" height="80" as="geometry" />
        </mxCell>
        <mxCell id="juU7Xa_zxB1kfExCuwxy-19" value="" style="edgeStyle=orthogonalEdgeStyle;rounded=0;orthogonalLoop=1;jettySize=auto;html=1;" edge="1" parent="1" source="juU7Xa_zxB1kfExCuwxy-5" target="juU7Xa_zxB1kfExCuwxy-18">
          <mxGeometry relative="1" as="geometry" />
        </mxCell>
        <mxCell id="juU7Xa_zxB1kfExCuwxy-22" value="" style="edgeStyle=orthogonalEdgeStyle;rounded=0;orthogonalLoop=1;jettySize=auto;html=1;exitX=0.5;exitY=1;exitDx=0;exitDy=0;" edge="1" parent="1" source="juU7Xa_zxB1kfExCuwxy-13" target="juU7Xa_zxB1kfExCuwxy-21">
          <mxGeometry relative="1" as="geometry" />
        </mxCell>
        <mxCell id="juU7Xa_zxB1kfExCuwxy-5" value="Desenvolvimento BackEnd&lt;div&gt;10 dias&lt;/div&gt;" style="shape=ext;rounded=1;html=1;whiteSpace=wrap;arcSize=0;" vertex="1" parent="1">
          <mxGeometry x="720" y="250" width="120" height="80" as="geometry" />
        </mxCell>
        <mxCell id="juU7Xa_zxB1kfExCuwxy-10" style="edgeStyle=orthogonalEdgeStyle;rounded=0;orthogonalLoop=1;jettySize=auto;html=1;" edge="1" parent="1" source="juU7Xa_zxB1kfExCuwxy-9" target="juU7Xa_zxB1kfExCuwxy-5">
          <mxGeometry relative="1" as="geometry" />
        </mxCell>
        <mxCell id="juU7Xa_zxB1kfExCuwxy-9" value="Desenvolvimento FrontEnd&lt;div&gt;7 dias&lt;/div&gt;" style="shape=ext;rounded=1;html=1;whiteSpace=wrap;arcSize=0;" vertex="1" parent="1">
          <mxGeometry x="540" y="250" width="120" height="80" as="geometry" />
        </mxCell>
        <mxCell id="juU7Xa_zxB1kfExCuwxy-14" style="edgeStyle=orthogonalEdgeStyle;rounded=0;orthogonalLoop=1;jettySize=auto;html=1;" edge="1" parent="1" source="juU7Xa_zxB1kfExCuwxy-13">
          <mxGeometry relative="1" as="geometry">
            <mxPoint x="1100" y="290" as="targetPoint" />
          </mxGeometry>
        </mxCell>
        <mxCell id="juU7Xa_zxB1kfExCuwxy-13" value="Lançamento&amp;nbsp;" style="shape=ext;rounded=1;html=1;whiteSpace=wrap;arcSize=0;" vertex="1" parent="1">
          <mxGeometry x="920" y="250" width="120" height="80" as="geometry" />
        </mxCell>
        <mxCell id="juU7Xa_zxB1kfExCuwxy-24" style="edgeStyle=orthogonalEdgeStyle;rounded=0;orthogonalLoop=1;jettySize=auto;html=1;" edge="1" parent="1" source="juU7Xa_zxB1kfExCuwxy-15">
          <mxGeometry relative="1" as="geometry">
            <mxPoint x="1290" y="290" as="targetPoint" />
          </mxGeometry>
        </mxCell>
        <mxCell id="juU7Xa_zxB1kfExCuwxy-15" value="Suporte" style="shape=ext;rounded=1;html=1;whiteSpace=wrap;arcSize=0;" vertex="1" parent="1">
          <mxGeometry x="1100" y="250" width="120" height="80" as="geometry" />
        </mxCell>
        <mxCell id="juU7Xa_zxB1kfExCuwxy-17" value="Inicio do Projeto" style="ellipse;whiteSpace=wrap;html=1;aspect=fixed;" vertex="1" parent="1">
          <mxGeometry x="230" y="255" width="80" height="80" as="geometry" />
        </mxCell>
        <mxCell id="juU7Xa_zxB1kfExCuwxy-20" style="edgeStyle=orthogonalEdgeStyle;rounded=0;orthogonalLoop=1;jettySize=auto;html=1;entryX=0.5;entryY=0;entryDx=0;entryDy=0;" edge="1" parent="1" source="juU7Xa_zxB1kfExCuwxy-18" target="juU7Xa_zxB1kfExCuwxy-13">
          <mxGeometry relative="1" as="geometry" />
        </mxCell>
        <mxCell id="juU7Xa_zxB1kfExCuwxy-18" value="Testes de segurança&lt;div&gt;7 dias&lt;/div&gt;" style="shape=ext;rounded=1;html=1;whiteSpace=wrap;arcSize=0;" vertex="1" parent="1">
          <mxGeometry x="720" y="90" width="120" height="80" as="geometry" />
        </mxCell>
        <mxCell id="juU7Xa_zxB1kfExCuwxy-23" style="edgeStyle=orthogonalEdgeStyle;rounded=0;orthogonalLoop=1;jettySize=auto;html=1;entryX=0.5;entryY=1;entryDx=0;entryDy=0;" edge="1" parent="1" source="juU7Xa_zxB1kfExCuwxy-21" target="juU7Xa_zxB1kfExCuwxy-15">
          <mxGeometry relative="1" as="geometry" />
        </mxCell>
        <mxCell id="juU7Xa_zxB1kfExCuwxy-21" value="&lt;div&gt;Treinamento dos agricultores&amp;nbsp;&lt;/div&gt;&lt;div&gt;3 dias&lt;/div&gt;" style="shape=ext;rounded=1;html=1;whiteSpace=wrap;arcSize=0;" vertex="1" parent="1">
          <mxGeometry x="920" y="400" width="120" height="80" as="geometry" />
        </mxCell>
        <mxCell id="juU7Xa_zxB1kfExCuwxy-25" value="Fim do projeto" style="ellipse;whiteSpace=wrap;html=1;aspect=fixed;" vertex="1" parent="1">
          <mxGeometry x="1290" y="250" width="80" height="80" as="geometry" />
        </mxCell>
      </root>
    </mxGraphModel>
  </diagram>
</mxfile>
